<?xml version="1.0" encoding="UTF-8"?>
<svg width="30px" height="30px" viewBox="0 0 30 30" version="1.1" xmlns="http://www.w3.org/2000/svg" xmlns:xlink="http://www.w3.org/1999/xlink">
    <!-- Generator: Sketch 51.2 (57519) - http://www.bohemiancoding.com/sketch -->
    <title>Group 6 Copy 2</title>
    <desc>Created with Sketch.</desc>
    <defs>
        <path d="M15,0 C6.71651786,0 0,6.71651786 0,15 C0,23.2834821 6.71651786,30 15,30 C23.2834821,30 30,23.2834821 30,15 C30,6.71651786 23.2834821,0 15,0 L15,0 Z M22.6941964,9.984375 L13.3794643,21.9375 C13.3058036,22.0111607 13.1852679,22.171875 13.0379464,22.171875 C12.8839286,22.171875 12.7834821,22.0647321 12.6964286,21.9776786 C12.609375,21.890625 7.41294643,16.8950893 7.41294643,16.8950893 L7.3125,16.7946429 C7.27232143,16.734375 7.23883929,16.6607143 7.23883929,16.5803571 C7.23883929,16.5 7.27232143,16.4263393 7.3125,16.3660714 C7.33928571,16.3392857 7.359375,16.3191964 7.38616071,16.2857143 C7.90178571,15.7433036 8.94642857,14.6450893 9.01339286,14.578125 C9.10044643,14.4910714 9.17410714,14.3772321 9.33482143,14.3772321 C9.50223214,14.3772321 9.609375,14.5178571 9.68973214,14.5982143 C9.77008929,14.6785714 12.703125,17.4977679 12.703125,17.4977679 L20.15625,7.921875 C20.2232143,7.86830357 20.3035714,7.828125 20.390625,7.828125 C20.4776786,7.828125 20.5580357,7.86160714 20.625,7.91517857 L22.6741071,9.52901786 C22.7276786,9.59598214 22.7611607,9.67633929 22.7611607,9.76339286 C22.7678571,9.85044643 22.734375,9.92410714 22.6941964,9.984375 L22.6941964,9.984375 Z" id="path-1"></path>
    </defs>
    <g id="Agent-Detail" stroke="none" stroke-width="1" fill="none" fill-rule="evenodd">
        <g id="Group-6-Copy-2">
            <mask id="mask-2" fill="white">
                <use xlink:href="#path-1"></use>
            </mask>
            <use id="Mask" fill="#00C853" xlink:href="#path-1"></use>
            <g id="fill/grey/4---silver" mask="url(#mask-2)" fill="#BDBDBD">
                <g transform="translate(-5.000000, -5.000000)" id="Rectangle">
                    <rect x="0" y="0" width="40" height="40"></rect>
                </g>
            </g>
        </g>
    </g>
</svg>