<?xml version="1.0" encoding="UTF-8"?>
<svg width="18px" height="18px" viewBox="0 0 18 18" version="1.1" xmlns="http://www.w3.org/2000/svg" xmlns:xlink="http://www.w3.org/1999/xlink">
    <!-- Generator: Sketch 51.3 (57544) - http://www.bohemiancoding.com/sketch -->
    <title>icon/person</title>
    <desc>Created with Sketch.</desc>
    <defs>
        <path d="M12,12 C14.4752344,12 16.5,9.97495313 16.5,7.5 C16.5,5.02504687 14.4752344,3 12,3 C9.52476563,3 7.5,5.02504687 7.5,7.5 C7.5,9.97495313 9.52476563,12 12,12 L12,12 Z M12,14.25 C9.01884375,14.25 3,15.7688437 3,18.75 L3,21 L21,21 L21,18.75 C21,15.7688437 14.9811563,14.25 12,14.25 L12,14.25 Z" id="path-1"></path>
    </defs>
    <g id="Agents-v2" stroke="none" stroke-width="1" fill="none" fill-rule="evenodd">
        <g id="Agent-Assistant-Home-(state:-only-phone-#)" transform="translate(-43.000000, -398.000000)">
            <g id="icon/person" transform="translate(40.000000, 395.000000)">
                <rect id="Bounding-Box" x="0" y="0" width="24" height="24"></rect>
                <mask id="mask-2" fill="white">
                    <use xlink:href="#path-1"></use>
                </mask>
                <use id="Mask" fill="#6200EA" fill-rule="evenodd" xlink:href="#path-1"></use>
                <g id="↳-🎨Color" stroke-width="1" fill-rule="evenodd" mask="url(#mask-2)" fill="#FFFFFF">
                    <g id="fill/grey/7---white">
                        <rect id="Box" x="0" y="0" width="24" height="24"></rect>
                    </g>
                </g>
            </g>
        </g>
    </g>
</svg>