<?xml version="1.0" encoding="UTF-8"?>
<svg width="38px" height="38px" viewBox="0 0 38 38" version="1.1" xmlns="http://www.w3.org/2000/svg" xmlns:xlink="http://www.w3.org/1999/xlink">
    <!-- Generator: Sketch 51.2 (57519) - http://www.bohemiancoding.com/sketch -->
    <title>Group 4</title>
    <desc>Created with Sketch.</desc>
    <defs>
        <path d="M4.09471154,17.8413462 L4.09471154,17.8413462 C4.17259615,17.9711538 4.21586538,18.1182692 4.21586538,18.2826923 L3.69230769,21 L6.12403846,20.04375 C6.24086538,19.9961538 6.36634615,19.9701923 6.50048077,19.9701923 C6.62163462,19.9701923 6.73846154,19.9918269 6.84663462,20.0307692 L6.85528846,20.0307692 C6.87259615,20.0394231 6.88990385,20.04375 6.90721154,20.0524038 C7.67740385,20.3682692 8.52548077,20.5456731 9.4125,20.5456731 C11.4158654,20.5456731 13.2028846,19.6586538 14.3798077,18.2697115 C13.7697115,18.4254808 13.1293269,18.5163462 12.4716346,18.5163462 C8.32211538,18.5163462 4.95576923,15.2711538 4.95576923,11.26875 C4.95576923,10.7581731 5.01201923,10.2649038 5.11586538,9.78461538 C3.81778846,10.9139423 3,12.5451923 3,14.3625 C3,15.5913462 3.37211538,16.7509615 4.01682692,17.7158654 C4.04278846,17.7504808 4.06875,17.7980769 4.09471154,17.8413462 L4.09471154,17.8413462 Z M13.4841346,3 C9.8625,3 6.83798077,5.475 6.12836538,8.76346154 C6.02451923,9.24375 5.96826923,9.73701923 5.96826923,10.2475962 C5.96826923,14.25 9.33028846,17.4951923 13.4841346,17.4951923 C14.1461538,17.4951923 14.7822115,17.4043269 15.3923077,17.2485577 C15.7427885,17.1576923 16.0889423,17.0538462 16.4221154,16.9197115 C16.44375,16.9110577 16.4610577,16.9024038 16.4826923,16.89375 C16.4870192,16.89375 16.4913462,16.89375 16.4913462,16.8894231 C16.6168269,16.8418269 16.7552885,16.8158654 16.89375,16.8158654 C17.0495192,16.8158654 17.1966346,16.8461538 17.3307692,16.9024038 L20.2990385,18.01875 L19.5634615,14.8254808 C19.5634615,14.6350962 19.6153846,14.4533654 19.70625,14.2975962 L19.70625,14.2975962 C19.7322115,14.25 19.7668269,14.2067308 19.7971154,14.1634615 C20.55,13.0341346 20.9870192,11.6884615 20.9870192,10.2475962 C21,6.24519231 17.6379808,3 13.4841346,3 L13.4841346,3 Z" id="path-1"></path>
    </defs>
    <g id="Agent-Detail" stroke="none" stroke-width="1" fill="none" fill-rule="evenodd">
        <g id="Client-Profile-(Mobile)" transform="translate(-136.000000, -216.000000)">
            <g id="Group-4" transform="translate(136.000000, 216.000000)">
                <circle id="Oval" fill="#3366FF" fill-rule="nonzero" cx="19" cy="19" r="19"></circle>
                <g id="icon/chat" transform="translate(7.000000, 7.000000)">
                    <rect id="Bounding-Box" x="0" y="0" width="24" height="24"></rect>
                    <mask id="mask-2" fill="white">
                        <use xlink:href="#path-1"></use>
                    </mask>
                    <use id="Mask" fill="#3366FF" fill-rule="evenodd" xlink:href="#path-1"></use>
                    <g id="↳-🎨Color" stroke-width="1" fill-rule="evenodd" mask="url(#mask-2)" fill="#FFFFFF">
                        <g id="fill/grey/7---white">
                            <rect id="Box" x="0" y="0" width="24" height="24"></rect>
                        </g>
                    </g>
                </g>
            </g>
        </g>
    </g>
</svg>