<?xml version="1.0" encoding="UTF-8"?>
<svg width="38px" height="38px" viewBox="0 0 38 38" version="1.1" xmlns="http://www.w3.org/2000/svg" xmlns:xlink="http://www.w3.org/1999/xlink">
    <!-- Generator: Sketch 51.2 (57519) - http://www.bohemiancoding.com/sketch -->
    <title>Group 10</title>
    <desc>Created with Sketch.</desc>
    <defs>
        <path d="M20.1790368,16.0602273 C19.4345609,15.2931818 17.3184136,13.85625 15.9314448,13.85625 C15.6101983,13.85625 15.329745,13.9278409 15.1002833,14.0761364 C14.4220963,14.5107955 13.8815864,14.8482955 13.6215297,14.8482955 C13.4787535,14.8482955 13.325779,14.7204545 12.9892351,14.4289773 L12.9331445,14.3778409 C12,13.5647727 11.8011331,13.3551136 11.4390935,12.9767045 L11.3473088,12.8795455 C11.2810198,12.8130682 11.2249292,12.7517045 11.1688385,12.6954545 C10.8526912,12.3681818 10.6232295,12.1329545 9.81246459,11.2125 L9.77677054,11.1715909 C9.38923513,10.7318182 9.13427762,10.4454545 9.11898017,10.2357955 C9.10368272,10.03125 9.28215297,9.69886364 9.73597734,9.08011364 C10.2866856,8.33352273 10.3070822,7.41306818 9.80226629,6.34431818 C9.39943343,5.50056818 8.74164306,4.69261364 8.16033994,3.98181818 L8.10934844,3.92045455 C7.60963173,3.30681818 7.02832861,3 6.38073654,3 C5.66175637,3 5.06515581,3.38863636 4.7490085,3.59318182 C4.72351275,3.60852273 4.698017,3.62897727 4.67252125,3.64431818 C3.96373938,4.09431818 3.44872521,4.71306818 3.25495751,5.34204545 C2.96430595,6.28806818 2.77053824,7.51534091 4.16260623,10.0670455 C5.36600567,12.2761364 6.4572238,13.7590909 8.19093484,15.54375 C9.82266289,17.2210227 10.5467422,17.7630682 12.168272,18.9392045 C13.9733711,20.2482955 15.7070822,21 16.9206799,21 C18.0475921,21 18.9348442,21 20.1994334,19.4710227 C21.5252125,17.8653409 20.9745042,16.8835227 20.1790368,16.0602273 L20.1790368,16.0602273 Z" id="path-1"></path>
    </defs>
    <g id="Agent-Detail" stroke="none" stroke-width="1" fill="none" fill-rule="evenodd">
        <g id="Client-Profile-(Mobile)" transform="translate(-206.000000, -216.000000)">
            <g id="Group-10" transform="translate(206.000000, 216.000000)">
                <circle id="Oval-Copy" fill="#3366FF" fill-rule="nonzero" cx="19" cy="19" r="19"></circle>
                <g id="icon/ios-telephone" transform="translate(7.000000, 7.000000)">
                    <rect id="Bounding-Box" x="0" y="0" width="24" height="24"></rect>
                    <mask id="mask-2" fill="white">
                        <use xlink:href="#path-1"></use>
                    </mask>
                    <use id="Mask" fill="#212121" fill-rule="evenodd" xlink:href="#path-1"></use>
                    <g id="↳-🎨Color" stroke-width="1" fill-rule="evenodd" mask="url(#mask-2)" fill="#FFFFFF">
                        <g id="fill/grey/7---white">
                            <rect id="Box" x="0" y="0" width="24" height="24"></rect>
                        </g>
                    </g>
                </g>
            </g>
        </g>
    </g>
</svg>