<?xml version="1.0" encoding="UTF-8"?>
<svg width="24px" height="24px" viewBox="0 0 24 24" version="1.1" xmlns="http://www.w3.org/2000/svg" xmlns:xlink="http://www.w3.org/1999/xlink">
    <!-- Generator: Sketch 51.2 (57519) - http://www.bohemiancoding.com/sketch -->
    <title>Fill 1</title>
    <desc>Created with Sketch.</desc>
    <defs></defs>
    <g id="Agents" stroke="none" stroke-width="1" fill="none" fill-rule="evenodd">
        <g id="Sign-In-(Auth)-(Mobile)" transform="translate(-69.000000, -318.000000)" fill="#3B5998">
            <path d="M72.233892,318 C70.4479347,318 69,319.447935 69,321.233892 L69,338.76579 C69,340.551968 70.4479347,341.999682 72.233892,341.999682 L80.8804763,341.999682 L80.8953739,333.423696 L78.6671104,333.423696 C78.3775235,333.423696 78.1424634,333.189444 78.1415828,332.89993 L78.1307214,330.135278 C78.1295472,329.844296 78.3654879,329.607548 78.6564692,329.607548 L80.8807698,329.607548 L80.8807698,326.936318 C80.8807698,323.836578 82.7739462,322.148667 85.5391125,322.148667 L87.8083996,322.148667 C88.0985003,322.148667 88.3341474,322.38402 88.3341474,322.674414 L88.3341474,325.005347 C88.3341474,325.295741 88.0987938,325.531095 87.8086932,325.531095 L86.4160193,325.531902 C84.9121634,325.531902 84.6208885,326.246329 84.6208885,327.295256 L84.6208885,329.607768 L87.9253792,329.607768 C88.2404316,329.607768 88.4846651,329.882751 88.4473843,330.195162 L88.1197092,332.959814 C88.0884462,333.224449 87.8640273,333.423696 87.5977042,333.423696 L84.6358596,333.423696 L84.6208885,341.999976 L89.76579,341.999976 C91.5517473,341.999976 92.999682,340.551968 92.999682,338.76601 L92.999682,321.233892 C92.999682,319.447935 91.5517473,318 89.76579,318 L72.233892,318 Z" id="Fill-1"></path>
        </g>
    </g>
</svg>