<?xml version="1.0" encoding="UTF-8"?>
<svg width="57px" height="58px" viewBox="0 0 57 58" version="1.1" xmlns="http://www.w3.org/2000/svg" xmlns:xlink="http://www.w3.org/1999/xlink">
    <!-- Generator: Sketch 51.2 (57519) - http://www.bohemiancoding.com/sketch -->
    <title>Group 6</title>
    <defs>
        <path d="M41.566879,12.5 L24.7781051,12.5 C23.8630573,12.5 23.1209395,13.241879 23.1209395,14.1571656 C23.1209395,15.0724522 23.8630573,15.8143312 24.7781051,15.8143312 L41.566879,15.8143312 C42.4821656,15.8143312 43.2240446,15.0724522 43.2240446,14.1571656 C43.2240446,13.241879 42.4821656,12.5 41.566879,12.5 M17.2236465,25.2423567 C17.2236465,27.5191083 15.5946656,29.1714968 13.3511146,29.1714968 C11.1400478,29.1714968 9.53566879,27.5191083 9.53566879,25.2423567 C9.53566879,23.0152866 11.1400478,21.3982484 13.3511146,21.3982484 C15.5946656,21.3982484 17.2236465,23.0152866 17.2236465,25.2423567 M13.3511146,18.168949 C9.23638535,18.168949 6.25,21.1438694 6.25,25.2423567 C6.25,29.3231688 9.30278662,32.4003185 13.3511146,32.4003185 C17.4319268,32.4003185 20.5088376,29.3231688 20.5088376,25.2423567 C20.5088376,21.1438694 17.4988057,18.168949 13.3511146,18.168949 M40.4165605,25.2423567 C40.4165605,27.5191083 38.7882962,29.1714968 36.5442675,29.1714968 C34.3329618,29.1714968 32.7285828,27.5191083 32.7285828,25.2423567 C32.7285828,23.0152866 34.3329618,21.3982484 36.5442675,21.3982484 C38.7882962,21.3982484 40.4165605,23.0152866 40.4165605,25.2423567 M36.5442675,18.168949 C32.4292994,18.168949 29.442914,21.1438694 29.442914,25.2423567 C29.442914,29.3231688 32.4957006,32.4003185 36.5442675,32.4003185 C40.6250796,32.4003185 43.7022293,29.3231688 43.7022293,25.2423567 C43.7022293,21.1438694 40.6917197,18.168949 36.5442675,18.168949 M24.8007962,18.3113057 C23.9101115,18.3113057 23.1859076,19.060828 23.1859076,19.9830414 L23.1859076,31.8612261 C23.2090764,32.9532643 23.0079618,33.7006369 22.5713376,34.1468153 C22.2453025,34.4797771 21.7709395,34.6486465 21.1618631,34.6486465 L20.7921178,34.6486465 C19.9329618,34.6486465 19.2340764,35.3604299 19.2340764,36.2353503 C19.2340764,37.0785032 19.9329618,37.7640127 20.7921178,37.7640127 L21.502707,37.7640127 C24.8187102,37.7640127 26.5002389,35.7767516 26.5002389,31.8574045 L26.5002389,19.9830414 C26.5002389,19.060828 25.7380573,18.3113057 24.8007962,18.3113057" id="path-1"></path>
    </defs>
    <g id="Agents" stroke="none" stroke-width="1" fill="none" fill-rule="evenodd">
        <g id="Sign-In-(Auth)-(Mobile)" transform="translate(-159.000000, -110.000000)">
            <g id="Group-6" transform="translate(159.000000, 110.000000)">
                <rect id="Rectangle-17" fill="#3366FF" fill-rule="nonzero" x="0" y="0" width="57" height="58" rx="28.5"></rect>
                <g id="icon/ojo-logo" transform="translate(3.000000, 5.000000)">
                    <rect id="Bounding-Box" x="0" y="0" width="50" height="50"></rect>
                    <mask id="mask-2" fill="white">
                        <use xlink:href="#path-1"></use>
                    </mask>
                    <use id="Mask" fill="#212121" fill-rule="evenodd" xlink:href="#path-1"></use>
                    <g id="↳-🎨Color" stroke-width="1" fill-rule="evenodd" mask="url(#mask-2)" fill="#FFFFFF">
                        <g id="fill/grey/7---white">
                            <rect id="Box" x="0" y="0" width="50" height="50"></rect>
                        </g>
                    </g>
                </g>
            </g>
        </g>
    </g>
</svg>
