<?xml version="1.0" encoding="UTF-8"?>
<svg width="36px" height="24px" viewBox="0 0 36 24" version="1.1" xmlns="http://www.w3.org/2000/svg" xmlns:xlink="http://www.w3.org/1999/xlink">
    <!-- Generator: Sketch 51.2 (57519) - http://www.bohemiancoding.com/sketch -->
    <title>logo</title>
    <desc>Created with Sketch.</desc>
    <defs>
        <path d="M33.9042038,0 L17.7869809,0 C16.908535,0 16.1961019,0.703245283 16.1961019,1.57086792 C16.1961019,2.43849057 16.908535,3.14173585 17.7869809,3.14173585 L33.9042038,3.14173585 C34.782879,3.14173585 35.4950828,2.43849057 35.4950828,1.57086792 C35.4950828,0.703245283 34.782879,0 33.9042038,0 M10.5347006,12.0787925 C10.5347006,14.2369811 8.97087898,15.8033208 6.81707006,15.8033208 C4.69444586,15.8033208 3.15424204,14.2369811 3.15424204,12.0787925 C3.15424204,9.96769811 4.69444586,8.43486792 6.81707006,8.43486792 C8.97087898,8.43486792 10.5347006,9.96769811 10.5347006,12.0787925 Z M6.81707006,5.37373585 C2.86692994,5.37373585 -4.26e-14,8.19373585 -4.26e-14,12.0787925 C-4.26e-14,15.9470943 2.93067516,18.864 6.81707006,18.864 C10.7346497,18.864 13.6884841,15.9470943 13.6884841,12.0787925 C13.6884841,8.19373585 10.7988535,5.37373585 6.81707006,5.37373585 Z M32.7998981,12.0787925 C32.7998981,14.2369811 31.2367643,15.8033208 29.0824968,15.8033208 C26.9596433,15.8033208 25.4194395,14.2369811 25.4194395,12.0787925 C25.4194395,9.96769811 26.9596433,8.43486792 29.0824968,8.43486792 C31.2367643,8.43486792 32.7998981,9.96769811 32.7998981,12.0787925 Z M29.0824968,5.37373585 C25.1321274,5.37373585 22.2651975,8.19373585 22.2651975,12.0787925 C22.2651975,15.9470943 25.1958726,18.864 29.0824968,18.864 C33.0000764,18.864 35.9541401,15.9470943 35.9541401,12.0787925 C35.9541401,8.19373585 33.064051,5.37373585 29.0824968,5.37373585 Z M17.8087643,5.50867925 C16.953707,5.50867925 16.2584713,6.21916981 16.2584713,7.09335849 L16.2584713,18.3529811 C16.2807134,19.3881509 16.0876433,20.0966038 15.6684841,20.5195472 C15.3554904,20.8351698 14.9001019,20.9952453 14.3153885,20.9952453 L13.9604331,20.9952453 C13.1356433,20.9952453 12.4647134,21.6699623 12.4647134,22.4993208 C12.4647134,23.298566 13.1356433,23.9483774 13.9604331,23.9483774 L14.6425987,23.9483774 C17.8259618,23.9483774 19.4402293,22.0646038 19.4402293,18.3493585 L19.4402293,7.09335849 C19.4402293,6.21916981 18.708535,5.50867925 17.8087643,5.50867925 Z" id="path-1"></path>
    </defs>
    <g id="Agent-Detail" stroke="none" stroke-width="1" fill="none" fill-rule="evenodd">
        <g id="Agent-Profile-(Mobile)" transform="translate(-170.000000, -82.000000)">
            <g id="logo" transform="translate(170.000000, 82.000000)">
                <rect id="Bounding-Box" x="0" y="0" width="36" height="24"></rect>
                <mask id="mask-2" fill="white">
                    <use xlink:href="#path-1"></use>
                </mask>
                <use id="Mask" fill="#212121" fill-rule="evenodd" xlink:href="#path-1"></use>
                <g id="↳-🎨Color" stroke-width="1" fill-rule="evenodd" mask="url(#mask-2)" fill="#3366FF">
                    <g id="fill/brand/blue/3">
                        <rect id="Box" x="0" y="0" width="36" height="24"></rect>
                    </g>
                </g>
            </g>
        </g>
    </g>
</svg>