<?xml version="1.0" encoding="UTF-8"?>
<svg width="18px" height="18px" viewBox="0 0 18 18" version="1.1" xmlns="http://www.w3.org/2000/svg" xmlns:xlink="http://www.w3.org/1999/xlink">
    <!-- Generator: Sketch 51.2 (57519) - http://www.bohemiancoding.com/sketch -->
    <title>Group 6</title>
    <desc>Created with Sketch.</desc>
    <defs>
        <path d="M17.1790368,13.0602273 C16.4345609,12.2931818 14.3184136,10.85625 12.9314448,10.85625 C12.6101983,10.85625 12.329745,10.9278409 12.1002833,11.0761364 C11.4220963,11.5107955 10.8815864,11.8482955 10.6215297,11.8482955 C10.4787535,11.8482955 10.325779,11.7204545 9.98923513,11.4289773 L9.93314448,11.3778409 C9,10.5647727 8.80113314,10.3551136 8.43909348,9.97670455 L8.34730878,9.87954545 C8.28101983,9.81306818 8.22492918,9.75170455 8.16883853,9.69545455 C7.85269122,9.36818182 7.62322946,9.13295455 6.81246459,8.2125 L6.77677054,8.17159091 C6.38923513,7.73181818 6.13427762,7.44545455 6.11898017,7.23579545 C6.10368272,7.03125 6.28215297,6.69886364 6.73597734,6.08011364 C7.28668555,5.33352273 7.30708215,4.41306818 6.80226629,3.34431818 C6.39943343,2.50056818 5.74164306,1.69261364 5.16033994,0.981818182 L5.10934844,0.920454545 C4.60963173,0.306818182 4.02832861,0 3.38073654,0 C2.66175637,0 2.06515581,0.388636364 1.7490085,0.593181818 C1.72351275,0.608522727 1.698017,0.628977273 1.67252125,0.644318182 C0.963739377,1.09431818 0.448725212,1.71306818 0.254957507,2.34204545 C-0.035694051,3.28806818 -0.229461756,4.51534091 1.16260623,7.06704545 C2.36600567,9.27613636 3.4572238,10.7590909 5.19093484,12.54375 C6.82266289,14.2210227 7.54674221,14.7630682 9.16827195,15.9392045 C10.9733711,17.2482955 12.7070822,18 13.9206799,18 C15.0475921,18 15.9348442,18 17.1994334,16.4710227 C18.5252125,14.8653409 17.9745042,13.8835227 17.1790368,13.0602273 L17.1790368,13.0602273 Z" id="path-1"></path>
    </defs>
    <g id="Agent-Detail" stroke="none" stroke-width="1" fill="none" fill-rule="evenodd">
        <g id="Support-(Mobile)" transform="translate(-330.000000, -293.000000)">
            <g id="icon/map" transform="translate(327.000000, 290.000000)">
                <g id="Group-6" transform="translate(3.000000, 3.000000)">
                    <mask id="mask-2" fill="white">
                        <use xlink:href="#path-1"></use>
                    </mask>
                    <use id="Mask" fill="#212121" xlink:href="#path-1"></use>
                    <g id="↳-🎨Color" mask="url(#mask-2)">
                        <g transform="translate(-3.000000, -3.000000)" id="fill/grey/1---black">
                            <g>
                                <rect id="Rectangle" fill="#212121" x="0" y="0" width="24" height="24"></rect>
                            </g>
                        </g>
                    </g>
                </g>
            </g>
        </g>
    </g>
</svg>