<?xml version="1.0" encoding="UTF-8"?>
<svg width="12px" height="12px" viewBox="0 0 12 12" version="1.1" xmlns="http://www.w3.org/2000/svg" xmlns:xlink="http://www.w3.org/1999/xlink">
    <!-- Generator: Sketch 51.2 (57519) - http://www.bohemiancoding.com/sketch -->
    <title>Mask</title>
    <desc>Created with Sketch.</desc>
    <defs>
        <path d="M8,2 C4.68660714,2 2,4.68660714 2,8 C2,11.3133929 4.68660714,14 8,14 C11.3133929,14 14,11.3133929 14,8 C14,4.68660714 11.3133929,2 8,2 L8,2 Z M11.0776786,5.99375 L7.35178571,10.775 C7.32232143,10.8044643 7.27410714,10.86875 7.21517857,10.86875 C7.15357143,10.86875 7.11339286,10.8258929 7.07857143,10.7910714 C7.04375,10.75625 4.96517857,8.75803571 4.96517857,8.75803571 L4.925,8.71785714 C4.90892857,8.69375 4.89553571,8.66428571 4.89553571,8.63214286 C4.89553571,8.6 4.90892857,8.57053571 4.925,8.54642857 C4.93571429,8.53571429 4.94375,8.52767857 4.95446429,8.51428571 C5.16071429,8.29732143 5.57857143,7.85803571 5.60535714,7.83125 C5.64017857,7.79642857 5.66964286,7.75089286 5.73392857,7.75089286 C5.80089286,7.75089286 5.84375,7.80714286 5.87589286,7.83928571 C5.90803571,7.87142857 7.08125,8.99910714 7.08125,8.99910714 L10.0625,5.16875 C10.0892857,5.14732143 10.1214286,5.13125 10.15625,5.13125 C10.1910714,5.13125 10.2232143,5.14464286 10.25,5.16607143 L11.0696429,5.81160714 C11.0910714,5.83839286 11.1044643,5.87053571 11.1044643,5.90535714 C11.1071429,5.94017857 11.09375,5.96964286 11.0776786,5.99375 L11.0776786,5.99375 Z" id="path-1"></path>
    </defs>
    <g id="Agent-Detail" stroke="none" stroke-width="1" fill="none" fill-rule="evenodd">
        <g id="Agent-Profile-(Mobile)" transform="translate(-76.000000, -494.000000)">
            <g id="Group-6" transform="translate(74.000000, 492.000000)">
                <mask id="mask-2" fill="white">
                    <use xlink:href="#path-1"></use>
                </mask>
                <use id="Mask" fill="#00C853" xlink:href="#path-1"></use>
            </g>
        </g>
    </g>
</svg>