<?xml version="1.0" encoding="UTF-8"?>
<svg width="16px" height="15px" viewBox="0 0 16 15" version="1.1" xmlns="http://www.w3.org/2000/svg" xmlns:xlink="http://www.w3.org/1999/xlink">
    <!-- Generator: Sketch 51.2 (57519) - http://www.bohemiancoding.com/sketch -->
    <title>Path 2</title>
    <desc>Created with Sketch.</desc>
    <defs></defs>
    <g id="Agent-Detail" stroke="none" stroke-width="1" fill="none" fill-rule="evenodd">
        <path d="M0.346312619,8.53311949 L1.8961229,6.91915219 C2.08627858,6.72112469 2.4005376,6.7134635 2.60011692,6.90198981 L5.23967593,9.39536602 C5.44041763,9.58499034 5.75687181,9.57597792 5.94649613,9.37523622 C5.95740212,9.36369083 5.96775183,9.35163237 5.97751005,9.33910185 L12.9419684,0.396052251 C13.1116363,0.178182037 13.425798,0.139106304 13.6436682,0.308774159 C13.6441883,0.309179175 13.6447076,0.309585218 13.645226,0.309992287 L15.4285746,1.71015256 C15.6452322,1.88025698 15.6835015,2.193553 15.5141599,2.41080741 L6.32016806,14.2061069 C6.15040453,14.4239026 5.83622572,14.4628403 5.61843005,14.2930768 C5.60478682,14.2824424 5.59170465,14.2711072 5.57923631,14.2591168 L0.360649009,9.24008093 C0.161712412,9.04877084 0.155414273,8.73245157 0.346577984,8.53337431 Z" id="Path-2" fill="#FFFFFF" fill-rule="nonzero"></path>
    </g>
</svg>