<?xml version="1.0" encoding="UTF-8"?>
<svg width="24px" height="24px" viewBox="0 0 24 24" version="1.1" xmlns="http://www.w3.org/2000/svg" xmlns:xlink="http://www.w3.org/1999/xlink">
    <!-- Generator: Sketch 51.2 (57519) - http://www.bohemiancoding.com/sketch -->
    <title>Group</title>
    <desc>Created with Sketch.</desc>
    <defs>
        <path d="M12.2634477,4.74383125 C14.0103773,4.74383125 15.5789042,5.34421087 16.8120152,6.52324631 L20.2247944,3.11046712 C18.164106,1.19048221 15.4706861,0.0113799392 12.2634477,0.0113799392 C7.61207639,0.0113799392 3.58822278,2.67779541 1.63033815,6.56656027 L5.60559725,9.64933787 C6.54119218,6.83693831 9.16436053,4.74383125 12.2634477,4.74383125 Z" id="path-1"></path>
    </defs>
    <g id="Page-1" stroke="none" stroke-width="1" fill="none" fill-rule="evenodd">
        <g id="google-favicon" transform="translate(-14.000000, -9.000000)">
            <g id="Group" transform="translate(14.000000, 9.000000)">
                <path d="M23.6862349,12.1805309 C23.6862349,11.3368444 23.6105692,10.5255098 23.4698657,9.74672744 L12.2634477,9.74672744 L12.2634477,14.3493705 L18.6671629,14.3493705 C18.3913037,15.8366837 17.5529647,17.0969329 16.2928493,17.9406193 L16.2928493,20.926141 L20.1382333,20.926141 C22.3882198,18.8546241 23.6862349,15.8042651 23.6862349,12.1805309 Z" id="Clip-16" fill="#5070A8"></path>
                <path d="M12.2634477,23.8088589 C15.4761004,23.8088589 18.169587,22.7433889 20.1382333,20.926141 L16.2928493,17.9406193 C15.2273124,18.6545644 13.8643932,19.0764076 12.2634477,19.0764076 C9.16436053,19.0764076 6.54119218,16.9833005 5.60559725,14.1708341 L1.63033815,14.1708341 L1.63033815,17.2537454 C3.58822278,21.1425103 7.61207639,23.8088589 12.2634477,23.8088589 Z" id="Clip-19" fill="#2F9E4F"></path>
                <path d="M5.60559725,14.1708341 C5.36757099,13.4569559 5.23234855,12.6943494 5.23234855,11.910086 C5.23234855,11.1258894 5.36757099,10.363283 5.60559725,9.64933787 L5.60559725,6.56656027 L1.63033815,6.56656027 C0.82448458,8.17285317 0.364741641,9.9901011 0.364741641,11.910086 C0.364741641,13.8301378 0.82448458,15.6474525 1.63033815,17.2537454 L5.60559725,14.1708341 Z" id="Clip-22" fill="#EFB529"></path>
                <mask id="mask-2" fill="white">
                    <use xlink:href="#path-1"></use>
                </mask>
                <use id="Clip-25" fill="#D53E36" xlink:href="#path-1"></use>
            </g>
        </g>
    </g>
</svg>