<?xml version="1.0" encoding="UTF-8"?>
<svg width="32px" height="32px" viewBox="0 0 32 32" version="1.1" xmlns="http://www.w3.org/2000/svg" xmlns:xlink="http://www.w3.org/1999/xlink">
    <!-- Generator: Sketch 51.2 (57519) - http://www.bohemiancoding.com/sketch -->
    <title>Group 27</title>
    <desc>Created with Sketch.</desc>
    <defs>
        <path d="M16,0 C7.16428571,0 0,7.16428571 0,16 C0,24.8357143 7.16428571,32 16,32 C24.8357143,32 32,24.8357143 32,16 C32,7.16428571 24.8357143,0 16,0 L16,0 Z M24.2071429,10.65 L14.2714286,23.4 C14.1928571,23.4785714 14.0642857,23.65 13.9071429,23.65 C13.7428571,23.65 13.6357143,23.5357143 13.5428571,23.4428571 C13.45,23.35 7.90714286,18.0214286 7.90714286,18.0214286 L7.8,17.9142857 C7.75714286,17.85 7.72142857,17.7714286 7.72142857,17.6857143 C7.72142857,17.6 7.75714286,17.5214286 7.8,17.4571429 C7.82857143,17.4285714 7.85,17.4071429 7.87857143,17.3714286 C8.42857143,16.7928571 9.54285714,15.6214286 9.61428571,15.55 C9.70714286,15.4571429 9.78571429,15.3357143 9.95714286,15.3357143 C10.1357143,15.3357143 10.25,15.4857143 10.3357143,15.5714286 C10.4214286,15.6571429 13.55,18.6642857 13.55,18.6642857 L21.5,8.45 C21.5714286,8.39285714 21.6571429,8.35 21.75,8.35 C21.8428571,8.35 21.9285714,8.38571429 22,8.44285714 L24.1857143,10.1642857 C24.2428571,10.2357143 24.2785714,10.3214286 24.2785714,10.4142857 C24.2857143,10.5071429 24.25,10.5857143 24.2071429,10.65 L24.2071429,10.65 Z" id="path-1"></path>
    </defs>
    <g id="Agent-Detail" stroke="none" stroke-width="1" fill="none" fill-rule="evenodd">
        <g id="Client-Profile-(Mobile)" transform="translate(-24.000000, -637.000000)">
            <g id="Group-11" transform="translate(20.000000, 633.000000)">
                <g id="icon/checkmark-circle">
                    <g id="Group-27" transform="translate(4.000000, 4.000000)">
                        <mask id="mask-2" fill="white">
                            <use xlink:href="#path-1"></use>
                        </mask>
                        <use id="Mask" fill="#00C853" xlink:href="#path-1"></use>
                        <g id="↳-🎨Color" mask="url(#mask-2)">
                            <g transform="translate(-5.333333, -5.333333)"></g>
                        </g>
                        <g id="fill/brand/green/2" mask="url(#mask-2)" fill="#00CA4C">
                            <g transform="translate(-5.333333, -5.333333)" id="Box">
                                <rect x="0" y="0" width="43" height="43"></rect>
                            </g>
                        </g>
                    </g>
                </g>
            </g>
        </g>
    </g>
</svg>